<svg width="16" height="15" viewBox="0 0 16 15" fill="none" xmlns="http://www.w3.org/2000/svg">
<path d="M11.416 0.232483H4.09091C2.06722 0.232483 0.420898 1.87929 0.420898 3.90358V10.6069C0.420898 12.6312 2.06722 14.278 4.09091 14.278H11.416C13.4397 14.278 15.086 12.6312 15.086 10.6069V3.90358C15.086 1.87929 13.4397 0.232483 11.416 0.232483ZM1.71557 3.90358C1.71557 2.5936 2.78132 1.52752 4.09091 1.52752H11.416C12.7256 1.52752 13.7914 2.5936 13.7914 3.90358V10.6069C13.7914 11.9169 12.7256 12.983 11.416 12.983H4.09091C2.78132 12.983 1.71557 11.9169 1.71557 10.6069V3.90358Z" fill="white"/>
<path d="M7.75358 10.6691C9.63545 10.6691 11.1673 9.13765 11.1673 7.2544C11.1673 5.37114 9.63628 3.83966 7.75358 3.83966C5.87089 3.83966 4.33984 5.37114 4.33984 7.2544C4.33984 9.13765 5.87089 10.6691 7.75358 10.6691ZM7.75358 5.13553C8.92218 5.13553 9.87265 6.08628 9.87265 7.25523C9.87265 8.42417 8.92218 9.37493 7.75358 9.37493C6.58498 9.37493 5.63451 8.42417 5.63451 7.25523C5.63451 6.08628 6.58498 5.13553 7.75358 5.13553Z" fill="white"/>
<path d="M11.4833 4.39144C11.99 4.39144 12.403 3.97912 12.403 3.47139C12.403 2.96366 11.9908 2.55133 11.4833 2.55133C10.9757 2.55133 10.5635 2.96366 10.5635 3.47139C10.5635 3.97912 10.9757 4.39144 11.4833 4.39144Z" fill="white"/>
</svg>
