<svg width="12" height="14" viewBox="0 0 12 14" fill="none" xmlns="http://www.w3.org/2000/svg">
<path d="M11.9778 3.98155V6.21739C11.5872 6.17923 11.0796 6.09046 10.5181 5.88471C9.78494 5.61591 9.23921 5.2484 8.88174 4.96383V9.48281L8.87262 9.46869C8.87843 9.55829 8.88174 9.64955 8.88174 9.74164C8.88174 11.9858 7.05627 13.8126 4.81197 13.8126C2.56766 13.8126 0.742188 11.9858 0.742188 9.74164C0.742188 7.4975 2.56766 5.66985 4.81197 5.66985C5.03175 5.66985 5.24739 5.68726 5.45806 5.72127V7.92477C5.25569 7.85259 5.03839 7.81359 4.81197 7.81359C3.74953 7.81359 2.88448 8.67806 2.88448 9.74164C2.88448 10.8052 3.74953 11.6697 4.81197 11.6697C5.8744 11.6697 6.73945 10.8044 6.73945 9.74164C6.73945 9.70182 6.73862 9.662 6.73613 9.62218V0.840576H8.96966C8.97795 1.02973 8.98542 1.22055 8.99371 1.40971C9.00864 1.78221 9.14134 2.13979 9.37274 2.43264C9.64394 2.77694 10.0445 3.1768 10.6069 3.49621C11.1335 3.79405 11.6278 3.92265 11.9778 3.98321V3.98155Z" fill="white"/>
</svg>
