<svg width="16" height="12" viewBox="0 0 16 12" fill="none" xmlns="http://www.w3.org/2000/svg">
<path d="M15.6599 3.80872C15.567 2.9119 15.3671 1.92049 14.6314 1.39949C14.0617 0.995458 13.3127 0.980522 12.6135 0.981351C11.1356 0.982181 9.65681 0.983843 8.17885 0.984673C6.75729 0.986332 5.33572 0.987166 3.91416 0.988825C3.32032 0.989655 2.74307 0.9432 2.19153 1.20038C1.71795 1.42106 1.34722 1.84084 1.12412 2.30792C0.814758 2.95752 0.75007 3.69341 0.712747 4.41186C0.643909 5.72019 0.651373 7.03183 0.733482 8.33932C0.794027 9.29339 0.94746 10.3478 1.68478 10.9559C2.33833 11.4944 3.2606 11.5209 4.10823 11.5218C6.79875 11.5242 9.4901 11.5267 12.1814 11.5284C12.5265 11.5292 12.8864 11.5226 13.2381 11.4844C13.9298 11.4098 14.5891 11.2115 15.0337 10.6988C15.4824 10.1819 15.5977 9.46262 15.6657 8.7815C15.8316 7.12888 15.8299 5.46051 15.6599 3.80872ZM6.62293 8.5716V3.93815L10.6338 6.25446L6.62293 8.5716Z" fill="white"/>
</svg>
