<svg width="70" height="55" viewBox="0 0 70 55" fill="none" xmlns="http://www.w3.org/2000/svg">
<path d="M39.7994 5.52845C31.0916 -2.363 23.9258 3.37417 21.4314 7.22919C6.73696 2.33105 6.01131 14.7125 7.48529 21.5154C-4.48794 34.0301 5.89793 39.202 12.5875 40.2236C12.3154 52.7411 20.8645 49.7478 25.173 46.6864C39.3232 59.476 48.7566 50.8816 51.7046 44.9857C61.2288 45.2578 63.6098 39.4299 63.6098 36.482C72.0455 30.4954 67.1247 24.0099 63.6098 21.5154C69.3243 5.46042 56.9202 5.30168 50.0039 7.22919C47.0106 1.51469 41.9537 3.71432 39.7994 5.52845Z" fill="#FFD100" stroke="black" stroke-width="2.04089"/>
<path d="M47.5549 13.3216C39.9145 16.8693 33.3228 13.3216 30.982 11.1044C29.1843 16.8693 21.9933 17.0171 18.6226 16.3704C20.4203 22.5787 16.0008 24.5003 13.5664 24.6851C18.7349 27.3458 17.5926 32.4455 16.3754 34.6628C25.1394 32.4455 28.6412 37.9887 29.2966 41.0374C35.8134 35.9377 42.6861 38.3583 45.3078 40.206C47.5549 32.6673 54.1092 31.5217 57.1054 31.8912C51.9369 27.6784 54.9519 23.1146 57.1054 21.3592C50.1392 22.6896 47.8358 16.5551 47.5549 13.3216Z" fill="#D10062"/>
<path d="M47.5549 13.3216C39.9145 16.8693 33.3228 13.3216 30.982 11.1044C29.1843 16.8693 21.9933 17.0171 18.6226 16.3704C20.4203 22.5787 16.0008 24.5003 13.5664 24.6851C18.7349 27.3458 17.5926 32.4455 16.3754 34.6628C25.1394 32.4455 28.6412 37.9887 29.2966 41.0374C35.8134 35.9377 42.6861 38.3583 45.3078 40.206C47.5549 32.6673 54.1092 31.5217 57.1054 31.8912C51.9369 27.6784 54.9519 23.1146 57.1054 21.3592C50.1392 22.6896 47.8358 16.5551 47.5549 13.3216Z" stroke="black" stroke-width="0.680297"/>
<path d="M47.5549 13.3216C39.9145 16.8693 33.3228 13.3216 30.982 11.1044C29.1843 16.8693 21.9933 17.0171 18.6226 16.3704C20.4203 22.5787 16.0008 24.5003 13.5664 24.6851C18.7349 27.3458 17.5926 32.4455 16.3754 34.6628C25.1394 32.4455 28.6412 37.9887 29.2966 41.0374C35.8134 35.9377 42.6861 38.3583 45.3078 40.206C47.5549 32.6673 54.1092 31.5217 57.1054 31.8912C51.9369 27.6784 54.9519 23.1146 57.1054 21.3592C50.1392 22.6896 47.8358 16.5551 47.5549 13.3216Z" stroke="black" stroke-opacity="0.2" stroke-width="0.680297"/>
<mask id="path-3-outside-1_1240_1421" maskUnits="userSpaceOnUse" x="14.978" y="13.6682" width="19.0125" height="22.316" fill="black">
<rect fill="white" x="14.978" y="13.6682" width="19.0125" height="22.316"/>
<path d="M31.4382 27.8248C31.5364 28.4262 31.5086 28.9626 31.355 29.434C31.2085 29.9042 30.9754 30.3216 30.6555 30.6863C30.3357 31.0509 29.9489 31.3707 29.4954 31.6455C29.0479 31.912 28.5722 32.1421 28.0683 32.3359C27.5643 32.5298 27.0508 32.6879 26.5278 32.8105C26.012 32.9319 25.5258 33.0298 25.0694 33.1043C24.6201 33.1776 24.1498 33.2358 23.6584 33.2788C23.1755 33.3278 22.6884 33.3515 22.1972 33.3499C21.7059 33.3482 21.2178 33.32 20.7328 33.2653C20.2466 33.2033 19.7804 33.1046 19.3343 32.9691L17.0279 18.9737C17.4065 18.7409 17.8134 18.522 18.2486 18.3171C18.6826 18.1049 19.128 17.9169 19.5848 17.7531C20.0476 17.5808 20.511 17.4345 20.9749 17.3142C21.4376 17.1866 21.8899 17.0868 22.3319 17.0146C22.8464 16.9307 23.3698 16.8787 23.9021 16.8588C24.4417 16.8377 24.9666 16.8636 25.4769 16.9365C25.9872 17.0095 26.4726 17.1348 26.9331 17.3126C27.3924 17.4831 27.8068 17.7205 28.1763 18.0247C28.553 18.3277 28.8668 18.7005 29.1176 19.1431C29.3756 19.5845 29.5548 20.1131 29.6553 20.729C29.7216 21.1348 29.7257 21.5247 29.6677 21.8986C29.6097 22.2726 29.4951 22.6186 29.3238 22.9367C29.1526 23.2547 28.9277 23.5406 28.6493 23.7944C28.3696 24.0408 28.0418 24.2431 27.6659 24.4012C28.157 24.4475 28.6141 24.5589 29.0371 24.7353C29.4674 24.9105 29.8444 25.1466 30.1681 25.4434C30.499 25.739 30.7718 26.0887 30.9865 26.4926C31.2084 26.8952 31.359 27.3393 31.4382 27.8248ZM24.9059 22.5307C24.8716 22.3206 24.7991 22.1502 24.6885 22.0194C24.5768 21.8815 24.448 21.776 24.3022 21.7031C24.1636 21.629 24.0147 21.5826 23.8555 21.564C23.7034 21.5442 23.5695 21.5437 23.4535 21.5626C23.3086 21.5863 23.1709 21.6311 23.0403 21.697C22.9097 21.763 22.784 21.8356 22.663 21.9148L22.9916 24.3383C23.1582 24.3111 23.3624 24.2629 23.604 24.1937C23.8456 24.1246 24.0711 24.0245 24.2803 23.8937C24.4956 23.7544 24.6676 23.5776 24.7963 23.3631C24.9237 23.1415 24.9603 22.864 24.9059 22.5307ZM23.9408 26.3258C23.7307 26.3601 23.5313 26.4149 23.3428 26.4903L23.7037 28.9755C23.816 28.9795 23.9246 28.9841 24.0296 28.9893C24.1406 28.986 24.2469 28.9761 24.3483 28.9596C24.5005 28.9347 24.6647 28.893 24.8412 28.8345C25.0164 28.7687 25.176 28.6757 25.3201 28.5555C25.4629 28.428 25.5715 28.2727 25.6457 28.0895C25.7272 27.9051 25.7455 27.6752 25.7005 27.3999C25.6556 27.1245 25.5646 26.9088 25.4275 26.7526C25.2977 26.5953 25.149 26.4819 24.9815 26.4126C24.8128 26.336 24.6355 26.298 24.4496 26.2985C24.2626 26.2919 24.0929 26.3009 23.9408 26.3258Z"/>
</mask>
<path d="M31.4382 27.8248C31.5364 28.4262 31.5086 28.9626 31.355 29.434C31.2085 29.9042 30.9754 30.3216 30.6555 30.6863C30.3357 31.0509 29.9489 31.3707 29.4954 31.6455C29.0479 31.912 28.5722 32.1421 28.0683 32.3359C27.5643 32.5298 27.0508 32.6879 26.5278 32.8105C26.012 32.9319 25.5258 33.0298 25.0694 33.1043C24.6201 33.1776 24.1498 33.2358 23.6584 33.2788C23.1755 33.3278 22.6884 33.3515 22.1972 33.3499C21.7059 33.3482 21.2178 33.32 20.7328 33.2653C20.2466 33.2033 19.7804 33.1046 19.3343 32.9691L17.0279 18.9737C17.4065 18.7409 17.8134 18.522 18.2486 18.3171C18.6826 18.1049 19.128 17.9169 19.5848 17.7531C20.0476 17.5808 20.511 17.4345 20.9749 17.3142C21.4376 17.1866 21.8899 17.0868 22.3319 17.0146C22.8464 16.9307 23.3698 16.8787 23.9021 16.8588C24.4417 16.8377 24.9666 16.8636 25.4769 16.9365C25.9872 17.0095 26.4726 17.1348 26.9331 17.3126C27.3924 17.4831 27.8068 17.7205 28.1763 18.0247C28.553 18.3277 28.8668 18.7005 29.1176 19.1431C29.3756 19.5845 29.5548 20.1131 29.6553 20.729C29.7216 21.1348 29.7257 21.5247 29.6677 21.8986C29.6097 22.2726 29.4951 22.6186 29.3238 22.9367C29.1526 23.2547 28.9277 23.5406 28.6493 23.7944C28.3696 24.0408 28.0418 24.2431 27.6659 24.4012C28.157 24.4475 28.6141 24.5589 29.0371 24.7353C29.4674 24.9105 29.8444 25.1466 30.1681 25.4434C30.499 25.739 30.7718 26.0887 30.9865 26.4926C31.2084 26.8952 31.359 27.3393 31.4382 27.8248ZM24.9059 22.5307C24.8716 22.3206 24.7991 22.1502 24.6885 22.0194C24.5768 21.8815 24.448 21.776 24.3022 21.7031C24.1636 21.629 24.0147 21.5826 23.8555 21.564C23.7034 21.5442 23.5695 21.5437 23.4535 21.5626C23.3086 21.5863 23.1709 21.6311 23.0403 21.697C22.9097 21.763 22.784 21.8356 22.663 21.9148L22.9916 24.3383C23.1582 24.3111 23.3624 24.2629 23.604 24.1937C23.8456 24.1246 24.0711 24.0245 24.2803 23.8937C24.4956 23.7544 24.6676 23.5776 24.7963 23.3631C24.9237 23.1415 24.9603 22.864 24.9059 22.5307ZM23.9408 26.3258C23.7307 26.3601 23.5313 26.4149 23.3428 26.4903L23.7037 28.9755C23.816 28.9795 23.9246 28.9841 24.0296 28.9893C24.1406 28.986 24.2469 28.9761 24.3483 28.9596C24.5005 28.9347 24.6647 28.893 24.8412 28.8345C25.0164 28.7687 25.176 28.6757 25.3201 28.5555C25.4629 28.428 25.5715 28.2727 25.6457 28.0895C25.7272 27.9051 25.7455 27.6752 25.7005 27.3999C25.6556 27.1245 25.5646 26.9088 25.4275 26.7526C25.2977 26.5953 25.149 26.4819 24.9815 26.4126C24.8128 26.336 24.6355 26.298 24.4496 26.2985C24.2626 26.2919 24.0929 26.3009 23.9408 26.3258Z" fill="white"/>
<path d="M31.355 29.434L30.2828 29.0845L30.2805 29.0916L30.2783 29.0987L31.355 29.434ZM29.4954 31.6455L30.0723 32.6145L30.0799 32.6099L29.4954 31.6455ZM26.5278 32.8105L26.2705 31.7126L26.2695 31.7128L26.5278 32.8105ZM23.6584 33.2788L23.5601 32.1554L23.5523 32.1561L23.5445 32.1569L23.6584 33.2788ZM20.7328 33.2653L20.5902 34.3839L20.5982 34.3849L20.6063 34.3859L20.7328 33.2653ZM19.3343 32.9691L18.2216 33.1525L18.3356 33.8443L19.0066 34.0481L19.3343 32.9691ZM17.0279 18.9737L16.4371 18.0132L15.7921 18.41L15.9153 19.1571L17.0279 18.9737ZM18.2486 18.3171L18.729 19.3373L18.7364 19.3338L18.7438 19.3302L18.2486 18.3171ZM19.5848 17.7531L19.9655 18.8146L19.9781 18.8099L19.5848 17.7531ZM20.9749 17.3142L21.258 18.4058L21.2664 18.4036L21.2746 18.4013L20.9749 17.3142ZM23.9021 16.8588L23.9443 17.9857L23.9462 17.9856L23.9021 16.8588ZM26.9331 17.3126L26.5269 18.3646L26.5337 18.3672L26.5406 18.3697L26.9331 17.3126ZM28.1763 18.0247L27.4595 18.8953L27.4695 18.9034L28.1763 18.0247ZM29.1176 19.1431L28.1364 19.699L28.1402 19.7056L28.144 19.7121L29.1176 19.1431ZM28.6493 23.7944L29.3949 24.6403L29.4019 24.6342L29.4088 24.6279L28.6493 23.7944ZM27.6659 24.4012L27.2289 23.3616L27.5601 25.5239L27.6659 24.4012ZM29.0371 24.7353L28.6031 25.7761L28.6118 25.7797L29.0371 24.7353ZM30.1681 25.4434L29.406 26.2745L29.4114 26.2795L29.4168 26.2844L30.1681 25.4434ZM30.9865 26.4926L29.9908 27.0219L29.9948 27.0294L29.9989 27.0369L30.9865 26.4926ZM24.6885 22.0194L23.8123 22.7293L23.8199 22.7386L23.8276 22.7478L24.6885 22.0194ZM24.3022 21.7031L23.7704 22.6975L23.784 22.7048L23.7978 22.7117L24.3022 21.7031ZM23.8555 21.564L23.7096 22.6822L23.717 22.6832L23.7244 22.684L23.8555 21.564ZM22.663 21.9148L22.045 20.9716L21.45 21.3614L21.5455 22.0663L22.663 21.9148ZM22.9916 24.3383L21.8741 24.4898L22.0298 25.6379L23.1732 25.4513L22.9916 24.3383ZM24.2803 23.8937L24.8782 24.8498L24.8855 24.8452L24.8928 24.8405L24.2803 23.8937ZM24.7963 23.3631L25.7632 23.9434L25.7686 23.9344L25.7738 23.9254L24.7963 23.3631ZM23.3428 26.4903L22.924 25.4433L22.0991 25.7732L22.2268 26.6524L23.3428 26.4903ZM23.7037 28.9755L22.5878 29.1376L22.723 30.0689L23.6636 30.1025L23.7037 28.9755ZM24.0296 28.9893L23.974 30.1156L24.0182 30.1178L24.0625 30.1165L24.0296 28.9893ZM24.8412 28.8345L25.1964 29.9048L25.2171 29.8979L25.2375 29.8902L24.8412 28.8345ZM25.3201 28.5555L26.0426 29.4213L26.0569 29.4093L26.0708 29.3969L25.3201 28.5555ZM25.6457 28.0895L24.6143 27.6337L24.6072 27.6497L24.6006 27.666L25.6457 28.0895ZM25.4275 26.7526L24.5577 27.4703L24.5687 27.4836L24.58 27.4965L25.4275 26.7526ZM24.9815 26.4126L24.5153 27.4394L24.5326 27.4472L24.5501 27.4545L24.9815 26.4126ZM24.4496 26.2985L24.4094 27.4255L24.4313 27.4263L24.4531 27.4262L24.4496 26.2985ZM30.3253 28.0064C30.401 28.4701 30.3693 28.8192 30.2828 29.0845L32.4271 29.7835C32.648 29.106 32.6718 28.3822 32.5512 27.6432L30.3253 28.0064ZM30.2783 29.0987C30.178 29.4207 30.022 29.6985 29.8078 29.9426L31.5032 31.4299C31.9288 30.9448 32.2391 30.3878 32.4316 29.7693L30.2783 29.0987ZM29.8078 29.9426C29.5706 30.213 29.2751 30.4604 28.9109 30.6811L30.0799 32.6099C30.6228 32.2809 31.1007 31.8888 31.5032 31.4299L29.8078 29.9426ZM28.9185 30.6766C28.5279 30.9092 28.11 31.1117 27.6634 31.2834L28.4731 33.3884C29.0345 33.1725 29.568 32.9148 30.0723 32.6145L28.9185 30.6766ZM27.6634 31.2834C27.2073 31.4588 26.7431 31.6018 26.2705 31.7126L26.785 33.9084C27.3585 33.7741 27.9213 33.6007 28.4731 33.3884L27.6634 31.2834ZM26.2695 31.7128C25.7755 31.829 25.3151 31.9216 24.8877 31.9914L25.251 34.2173C25.7366 34.138 26.2485 34.0347 26.7861 33.9082L26.2695 31.7128ZM24.8877 31.9914C24.4683 32.0598 24.0259 32.1146 23.5601 32.1554L23.7567 34.4022C24.2737 34.3569 24.7719 34.2954 25.251 34.2173L24.8877 31.9914ZM23.5445 32.1569C23.1011 32.2019 22.6533 32.2237 22.201 32.2222L22.1933 34.4776C22.7234 34.4794 23.2499 34.4538 23.7724 34.4007L23.5445 32.1569ZM22.201 32.2222C21.7505 32.2207 21.3033 32.1948 20.8593 32.1447L20.6063 34.3859C21.1323 34.4452 21.6614 34.4758 22.1933 34.4776L22.201 32.2222ZM20.8754 32.1467C20.4487 32.0923 20.0446 32.0063 19.662 31.8901L19.0066 34.0481C19.5162 34.2029 20.0445 34.3143 20.5902 34.3839L20.8754 32.1467ZM20.447 32.7857L18.1406 18.7904L15.9153 19.1571L18.2216 33.1525L20.447 32.7857ZM17.6188 19.9342C17.9589 19.725 18.3286 19.5258 18.729 19.3373L17.7682 17.2968C17.2981 17.5181 16.8541 17.7567 16.4371 18.0132L17.6188 19.9342ZM18.7438 19.3302C19.1404 19.1363 19.5475 18.9644 19.9655 18.8146L19.2041 16.6916C18.7084 16.8693 18.2248 17.0735 17.7533 17.3039L18.7438 19.3302ZM19.9781 18.8099C20.4059 18.6507 20.8326 18.5161 21.258 18.4058L20.6917 16.2227C20.1894 16.353 19.6893 16.5109 19.1915 16.6962L19.9781 18.8099ZM21.2746 18.4013C21.7012 18.2837 22.1141 18.1928 22.5136 18.1276L22.1503 15.9017C21.6658 15.9807 21.174 16.0895 20.6751 16.2271L21.2746 18.4013ZM22.5136 18.1276C22.9809 18.0513 23.4577 18.0039 23.9443 17.9857L23.8599 15.7319C23.2819 15.7535 22.7119 15.81 22.1503 15.9017L22.5136 18.1276ZM23.9462 17.9856C24.4209 17.967 24.8776 17.99 25.3174 18.0529L25.6365 15.8202C25.0557 15.7372 24.4624 15.7083 23.858 15.732L23.9462 17.9856ZM25.3174 18.0529C25.7471 18.1143 26.1494 18.2188 26.5269 18.3646L27.3392 16.2606C26.7958 16.0508 26.2274 15.9046 25.6365 15.8202L25.3174 18.0529ZM26.5406 18.3697C26.885 18.4976 27.1893 18.6728 27.4596 18.8953L28.893 17.154C28.4243 16.7682 27.8998 16.4686 27.3256 16.2554L26.5406 18.3697ZM27.4695 18.9034C27.7295 19.1125 27.9522 19.3738 28.1364 19.699L30.0987 18.5872C29.7814 18.0272 29.3765 17.5428 28.883 17.1459L27.4695 18.9034ZM28.144 19.7121C28.3186 20.0109 28.4594 20.4022 28.5424 20.9107L30.7683 20.5474C30.6503 19.8241 30.4325 19.1581 30.0911 18.574L28.144 19.7121ZM28.5424 20.9107C28.5911 21.2092 28.5916 21.4791 28.5533 21.7258L30.7821 22.0714C30.8598 21.5703 30.852 21.0604 30.7683 20.5474L28.5424 20.9107ZM28.5533 21.7258C28.514 21.9793 28.4386 22.2021 28.3309 22.4021L30.3167 23.4713C30.5516 23.0351 30.7054 22.5659 30.7821 22.0714L28.5533 21.7258ZM28.3309 22.4021C28.2226 22.6033 28.0782 22.7891 27.8897 22.9608L29.4088 24.6279C29.7773 24.2921 30.0826 23.9062 30.3167 23.4713L28.3309 22.4021ZM27.9036 22.9484C27.7238 23.1068 27.5026 23.2465 27.2289 23.3616L28.103 25.4407C28.5811 25.2397 29.0154 24.9749 29.3949 24.6403L27.9036 22.9484ZM27.5601 25.5239C27.9468 25.5603 28.2923 25.6465 28.6031 25.7761L29.4712 23.6945C28.9358 23.4712 28.3672 23.3346 27.7718 23.2785L27.5601 25.5239ZM28.6118 25.7797C28.9253 25.9074 29.1866 26.0734 29.406 26.2745L30.9302 24.6122C30.5022 24.2198 30.0096 23.9137 29.4625 23.6909L28.6118 25.7797ZM29.4168 26.2844C29.6455 26.4886 29.8366 26.7319 29.9908 27.0219L31.9822 25.9633C31.707 25.4456 31.3526 24.9894 30.9194 24.6024L29.4168 26.2844ZM29.9989 27.0369C30.1544 27.3191 30.2654 27.6392 30.3253 28.0064L32.5512 27.6432C32.4527 27.0394 32.2625 26.4714 31.9741 25.9483L29.9989 27.0369ZM26.0188 22.3491C25.9596 21.986 25.8207 21.6117 25.5494 21.2911L23.8276 22.7478C23.8042 22.7201 23.7924 22.6969 23.788 22.6865C23.7841 22.6772 23.7882 22.6835 23.7929 22.7123L26.0188 22.3491ZM25.5647 21.3095C25.3609 21.0579 25.1086 20.8456 24.8065 20.6945L23.7978 22.7117C23.7943 22.71 23.7927 22.7086 23.7937 22.7094C23.795 22.7104 23.8015 22.716 23.8123 22.7293L25.5647 21.3095ZM24.834 20.7087C24.5683 20.5666 24.2831 20.4787 23.9866 20.444L23.7244 22.684C23.7463 22.6866 23.7589 22.6914 23.7704 22.6975L24.834 20.7087ZM24.0013 20.4458C23.7716 20.4158 23.5234 20.4087 23.2719 20.4497L23.6352 22.6756C23.624 22.6774 23.6238 22.6764 23.6372 22.6765C23.6505 22.6765 23.6741 22.6776 23.7096 22.6822L24.0013 20.4458ZM23.2719 20.4497C23.0137 20.4918 22.7658 20.5724 22.532 20.6904L23.5487 22.7036C23.576 22.6898 23.6035 22.6808 23.6352 22.6756L23.2719 20.4497ZM22.532 20.6904C22.3641 20.7752 22.2017 20.8689 22.045 20.9716L23.281 22.8581C23.3662 22.8023 23.4554 22.7508 23.5487 22.7036L22.532 20.6904ZM21.5455 22.0663L21.8741 24.4898L24.109 24.1868L23.7805 21.7633L21.5455 22.0663ZM23.1732 25.4513C23.3987 25.4145 23.6488 25.3539 23.9144 25.2779L23.2936 23.1096C23.076 23.1719 22.9177 23.2078 22.8099 23.2254L23.1732 25.4513ZM23.9144 25.2779C24.2555 25.1802 24.5779 25.0376 24.8782 24.8498L23.6824 22.9376C23.5642 23.0115 23.4357 23.0689 23.2936 23.1096L23.9144 25.2779ZM24.8928 24.8405C25.2489 24.6102 25.5436 24.3093 25.7632 23.9434L23.8293 22.7829C23.7916 22.8458 23.7423 22.8986 23.6678 22.9468L24.8928 24.8405ZM25.7738 23.9254C26.067 23.4155 26.1015 22.8558 26.0188 22.3491L23.7929 22.7123C23.8059 22.7919 23.8025 22.8319 23.8012 22.8416C23.8004 22.848 23.8023 22.8295 23.8187 22.8009L25.7738 23.9254ZM23.7591 25.2128C23.4717 25.2597 23.1926 25.3359 22.924 25.4433L23.7615 27.5374C23.8701 27.494 23.9896 27.4604 24.1224 27.4387L23.7591 25.2128ZM22.2268 26.6524L22.5878 29.1376L24.8197 28.8134L24.4587 26.3282L22.2268 26.6524ZM23.6636 30.1025C23.771 30.1063 23.8745 30.1107 23.974 30.1156L24.0852 27.8629C23.9747 27.8575 23.8609 27.8527 23.7439 27.8485L23.6636 30.1025ZM24.0625 30.1165C24.2194 30.1119 24.3755 30.0977 24.5299 30.0725L24.1667 27.8466C24.1182 27.8545 24.0618 27.8602 23.9966 27.8621L24.0625 30.1165ZM24.5299 30.0725C24.7515 30.0364 24.9744 29.9784 25.1964 29.9048L24.486 27.7642C24.3551 27.8076 24.2494 27.8331 24.1667 27.8466L24.5299 30.0725ZM25.2375 29.8902C25.5317 29.7798 25.8015 29.6225 26.0426 29.4213L24.5975 27.6897C24.5505 27.7289 24.5011 27.7576 24.4448 27.7788L25.2375 29.8902ZM26.0708 29.3969C26.3468 29.1507 26.5539 28.8508 26.6908 28.513L24.6006 27.666C24.589 27.6945 24.5791 27.7053 24.5693 27.714L26.0708 29.3969ZM26.6772 28.5453C26.8749 28.0978 26.8806 27.6295 26.8135 27.2183L24.5876 27.5815C24.5984 27.6476 24.597 27.6815 24.5964 27.6894C24.5959 27.6958 24.5969 27.6729 24.6143 27.6337L26.6772 28.5453ZM26.8135 27.2183C26.7458 26.8038 26.5916 26.3694 26.275 26.0087L24.58 27.4965C24.5593 27.4729 24.5552 27.4595 24.5595 27.4698C24.5645 27.4815 24.5769 27.5158 24.5876 27.5815L26.8135 27.2183ZM26.2974 26.035C26.065 25.7533 25.7712 25.519 25.4129 25.3707L24.5501 27.4545C24.546 27.4528 24.5424 27.451 24.5394 27.4492C24.538 27.4484 24.5369 27.4477 24.5361 27.4472C24.5353 27.4467 24.5349 27.4464 24.5349 27.4464C24.535 27.4464 24.5355 27.4468 24.5364 27.4476C24.5373 27.4484 24.5388 27.4497 24.5406 27.4515C24.5444 27.4552 24.5502 27.4612 24.5577 27.4703L26.2974 26.035ZM25.4477 25.3858C25.131 25.242 24.7935 25.1698 24.4461 25.1709L24.4531 27.4262C24.4775 27.4261 24.4945 27.43 24.5153 27.4394L25.4477 25.3858ZM24.4898 25.1716C24.2437 25.1628 23.9982 25.1738 23.7591 25.2128L24.1224 27.4387C24.1877 27.4281 24.2815 27.4209 24.4094 27.4255L24.4898 25.1716Z" fill="black" mask="url(#path-3-outside-1_1240_1421)"/>
<mask id="path-5-outside-2_1240_1421" maskUnits="userSpaceOnUse" x="28.7164" y="15.3564" width="12.6331" height="19.5057" fill="black">
<rect fill="white" x="28.7164" y="15.3564" width="12.6331" height="19.5057"/>
<path d="M39.5734 18.4184L35.1898 32.8136L30.5978 32.0588L33.7838 17.4697L39.5734 18.4184Z"/>
</mask>
<path d="M39.5734 18.4184L35.1898 32.8136L30.5978 32.0588L33.7838 17.4697L39.5734 18.4184Z" fill="white"/>
<path d="M39.5734 18.4184L40.6521 18.7469L41.0276 17.5139L39.7557 17.3055L39.5734 18.4184ZM35.1898 32.8136L35.0069 33.9263L35.981 34.0864L36.2686 33.1421L35.1898 32.8136ZM30.5978 32.0588L29.4961 31.8182L29.2427 32.9788L30.4149 33.1715L30.5978 32.0588ZM33.7838 17.4697L33.9662 16.3568L32.9104 16.1838L32.6821 17.2291L33.7838 17.4697ZM38.4946 18.0899L34.111 32.4851L36.2686 33.1421L40.6521 18.7469L38.4946 18.0899ZM35.3727 31.7008L30.7808 30.946L30.4149 33.1715L35.0069 33.9263L35.3727 31.7008ZM31.6996 32.2994L34.8855 17.7102L32.6821 17.2291L29.4961 31.8182L31.6996 32.2994ZM33.6015 18.5825L39.391 19.5312L39.7557 17.3055L33.9662 16.3568L33.6015 18.5825Z" fill="black" mask="url(#path-5-outside-2_1240_1421)"/>
<mask id="path-7-outside-3_1240_1421" maskUnits="userSpaceOnUse" x="32.3236" y="17.0575" width="27.8759" height="27.8759" fill="black">
<rect fill="white" x="32.3236" y="17.0575" width="27.8759" height="27.8759"/>
<path d="M57.9237 29.3727L47.7656 41.9898L43.5376 39.2712L48.4932 32.336L42.6744 36.6384L41.0916 35.5197L43.2174 29.4973L39.0807 35.3121L34.8369 32.5015L43.8009 20.2002L48.5505 23.2874L46.1773 30.5374L53.0854 25.9531L57.9237 29.3727Z"/>
</mask>
<path d="M57.9237 29.3727L47.7656 41.9898L43.5376 39.2712L48.4932 32.336L42.6744 36.6384L41.0916 35.5197L43.2174 29.4973L39.0807 35.3121L34.8369 32.5015L43.8009 20.2002L48.5505 23.2874L46.1773 30.5374L53.0854 25.9531L57.9237 29.3727Z" fill="white"/>
<path d="M57.9237 29.3727L58.802 30.0799L59.5549 29.1448L58.5745 28.4518L57.9237 29.3727ZM47.7656 41.9898L47.1557 42.9383L48.0083 43.4865L48.6439 42.697L47.7656 41.9898ZM43.5376 39.2712L42.6201 38.6156L41.9315 39.5792L42.9277 40.2198L43.5376 39.2712ZM48.4932 32.336L49.4107 32.9917L47.8228 31.4293L48.4932 32.336ZM42.6744 36.6384L42.0236 37.5592L42.6893 38.0298L43.3448 37.5451L42.6744 36.6384ZM41.0916 35.5197L40.0283 35.1443L39.7444 35.9484L40.4408 36.4406L41.0916 35.5197ZM43.2174 29.4973L44.2808 29.8727L42.2986 28.8436L43.2174 29.4973ZM39.0807 35.3121L38.458 36.2523L39.3673 36.8545L39.9996 35.9658L39.0807 35.3121ZM34.8369 32.5015L33.9255 31.8374L33.231 32.7905L34.2142 33.4417L34.8369 32.5015ZM43.8009 20.2002L44.4155 19.2547L43.5191 18.6721L42.8895 19.5361L43.8009 20.2002ZM48.5505 23.2874L49.6222 23.6382L49.8919 22.8143L49.165 22.3419L48.5505 23.2874ZM46.1773 30.5374L45.1056 30.1866L44.0956 33.2723L46.8008 31.477L46.1773 30.5374ZM53.0854 25.9531L53.7363 25.0322L53.1055 24.5864L52.4619 25.0135L53.0854 25.9531ZM57.0453 28.6655L46.8872 41.2826L48.6439 42.697L58.802 30.0799L57.0453 28.6655ZM48.3754 41.0412L44.1475 38.3227L42.9277 40.2198L47.1557 42.9383L48.3754 41.0412ZM44.4551 39.9269L49.4107 32.9917L47.5757 31.6804L42.6201 38.6156L44.4551 39.9269ZM47.8228 31.4293L42.004 35.7316L43.3448 37.5451L49.1636 33.2428L47.8228 31.4293ZM43.3253 35.7175L41.7425 34.5988L40.4408 36.4406L42.0236 37.5592L43.3253 35.7175ZM42.155 35.895L44.2808 29.8727L42.1541 29.1219L40.0283 35.1443L42.155 35.895ZM42.2986 28.8436L38.1618 34.6584L39.9996 35.9658L44.1363 30.151L42.2986 28.8436ZM39.7034 34.3719L35.4596 31.5613L34.2142 33.4417L38.458 36.2523L39.7034 34.3719ZM35.7483 33.1656L44.7123 20.8643L42.8895 19.5361L33.9255 31.8374L35.7483 33.1656ZM43.1863 21.1457L47.9359 24.2329L49.165 22.3419L44.4155 19.2547L43.1863 21.1457ZM47.4787 22.9366L45.1056 30.1866L47.249 30.8882L49.6222 23.6382L47.4787 22.9366ZM46.8008 31.477L53.7089 26.8927L52.4619 25.0135L45.5538 29.5978L46.8008 31.477ZM52.4345 26.874L57.2728 30.2936L58.5745 28.4518L53.7363 25.0322L52.4345 26.874Z" fill="black" mask="url(#path-7-outside-3_1240_1421)"/>
</svg>
